<?xml version="1.0" encoding="UTF-8" standalone="no"?>
<!-- Created with Inkscape (http://www.inkscape.org/) -->

<svg
   xmlns:dc="http://purl.org/dc/elements/1.1/"
   xmlns:cc="http://creativecommons.org/ns#"
   xmlns:rdf="http://www.w3.org/1999/02/22-rdf-syntax-ns#"
   xmlns:svg="http://www.w3.org/2000/svg"
   xmlns="http://www.w3.org/2000/svg"
   xmlns:sodipodi="http://sodipodi.sourceforge.net/DTD/sodipodi-0.dtd"
   xmlns:inkscape="http://www.inkscape.org/namespaces/inkscape"
   version="1.1"
   id="svg10"
   xml:space="preserve"
   width="160.93401"
   height="105.93587"
   viewBox="0 0 160.93401 105.93587"
   sodipodi:docname="lo.svg"
   inkscape:version="0.92.2 (5c3e80d, 2017-08-06)"><metadata
     id="metadata16"><rdf:RDF><cc:Work
         rdf:about=""><dc:format>image/svg+xml</dc:format><dc:type
           rdf:resource="http://purl.org/dc/dcmitype/StillImage" /><dc:title></dc:title></cc:Work></rdf:RDF></metadata><defs
     id="defs14" /><sodipodi:namedview
     pagecolor="#ffffff"
     bordercolor="#666666"
     borderopacity="1"
     objecttolerance="10"
     gridtolerance="10"
     guidetolerance="10"
     inkscape:pageopacity="0"
     inkscape:pageshadow="2"
     inkscape:window-width="987"
     inkscape:window-height="673"
     id="namedview12"
     showgrid="false"
     inkscape:zoom="3.4442263"
     inkscape:cx="80.467003"
     inkscape:cy="52.967934"
     inkscape:window-x="8"
     inkscape:window-y="12"
     inkscape:window-maximized="0"
     inkscape:current-layer="g18" /><g
     id="g18"
     inkscape:groupmode="layer"
     inkscape:label="lo"
     transform="matrix(1.3333333,0,0,-1.3333333,1.3333333,104.60253)"><g
       id="g227"
       transform="matrix(0.34141456,0,0,0.33929711,15.242901,13.936387)"><path
         inkscape:connector-curvature="0"
         id="path20"
         style="fill:#3d2f31;fill-opacity:1;fill-rule:evenodd;stroke:none"
         d="m 51.7799,55.8808 c 1.7555,3.1252 2.9716,3.3403 5.7776,0.9998 -1.9202,-1.9463 2.6079,-0.559 -2.49,-1.7697 -4.0668,-0.9658 -2.9695,0.4978 -3.2876,0.7699 z m -10.5086,5 c 3.6216,-3.5294 6.3666,-1.5843 6.4318,-7.7051 -2.4531,2.0817 -1.11,2.0673 -3.2479,3.5742 -1.4446,1.0182 -3.1811,0.7585 -4.3061,2.7595 -2.6992,6.857 4.9884,11.9676 12.2088,11.0619 6.9775,-0.875 11.0432,-10.0241 8.2193,-14.9842 -2.4344,5.5565 -0.3512,11.736 -7.2626,12.9918 -7.2491,1.3169 -11.5659,-1.4259 -12.0433,-7.6981 z m -5.3997,-7.1575 c -1.2688,1.4159 -0.7464,-0.1953 -1.5137,2.2014 -0.1996,0.6234 -0.2894,2.2709 -0.2736,2.9413 0.2314,9.7732 9.997,16.9982 20.5283,16.4157 6.6021,-0.3651 11.9551,-2.8761 14.8889,-6.4712 2.9793,-3.6508 5.1602,-10.9401 2.0756,-15.9052 -1.4647,2.5939 0.0377,3.7729 -0.3629,7.6138 -0.3313,3.1811 -1.2364,4.7659 -3.1748,6.7958 -7.3207,7.6669 -20.232,8.9226 -28.0967,1.1965 -4.9002,-4.8135 -3.6757,-7.2777 -4.0711,-14.7881 z m -5.3238,-7.0202 2.1079,-0.4148 0.0683,-2.2609 c 2.4092,-1.307 1.0001,0.6883 1.5647,-2.9423 0.2339,0.2571 0.5448,1.0148 0.6594,0.8078 1.0672,-1.9275 0.8929,1.1203 1.1426,1.4191 l 1.2441,1.3926 c -2.122,0.8745 -0.7214,0.1145 -1.4006,2.1762 l 3.4796,6.5307 c 5.5905,-1.0553 5.2789,-2.427 12.1271,-1.3104 5.0015,0.8152 7.8962,1.7818 13.3586,1.1503 -0.288,1.9958 -0.5148,1.8569 -0.157,4.0989 0.0515,0.3226 0.2573,1.2826 0.3594,1.5899 0.5295,1.5917 0.7296,1.5775 1.22,2.3281 l 0.9196,-8.4013 8.3151,-1.1248 c 2.5436,4.8044 -0.2891,6.9531 6.1742,6.6671 -4.3557,-2.7357 -1.209,0.9609 -3.6956,-3.5286 l 1.7873,-4.8968 1.6041,0.5689 1.1823,0.4283 -0.9504,6.3845 3.02,-0.8031 1.1957,0.0703 c -0.8394,0.9133 -0.6591,0.7438 -1.7691,1.7087 -10.3159,8.9674 -5.131,7.6936 -10.9729,12.0873 -4.7452,3.5691 -12.1831,7.2374 -20.5776,7.0132 -8.8401,-0.2359 -14.3535,-4.3399 -17.477,-9.0876 -6.3071,-9.586 0.7696,-15.9435 -4.5298,-21.6513" /><path
         inkscape:connector-curvature="0"
         id="path22"
         style="fill:#39322c;fill-opacity:1;fill-rule:evenodd;stroke:none"
         d="m 73.4349,33.0959 -0.9581,-1.1378 c 0.9221,-0.4995 1.1511,1.9445 1.311,-2.0231 0.1775,-4.4002 -0.4328,-2.0038 -1.4119,-2.7499 l 0.0442,-0.6695 c -0.578,-3.6533 -1.099,-2.8925 -5.7943,-3.5638 -7.6011,-1.0865 -5.7699,-1.9428 -6.211,-3.6907 3.1422,-0.8747 7.4577,1.9511 11.9707,2.4358 C 67.6298,7.4818 43.6507,6.8114 36.1936,19.0684 l 2.1368,0.9689 c -3.4946,-0.2129 -4.7872,0.1808 -7.9563,-0.027 5.6704,-3.5056 1.2617,0.396 5.5735,-6.7507 4.3914,-7.2788 13.1247,-12.63 22.6301,-13.197 15.0973,-0.9002 25.0996,7.9697 24.5956,22.9431 0.324,-0.2205 2.4837,-1.3173 2.9761,-1.6968 l -0.4521,1.8927 c -0.8464,1.3731 -0.1945,0.2713 -0.6588,2.3065 l -2.446,1.556 c -2.0123,5.7092 -1.5622,5.0272 -5.1352,9.2945 L 77.1934,36.4493 76.25,33.3411 Z" /><path
         inkscape:connector-curvature="0"
         id="path24"
         style="fill:#302a27;fill-opacity:1;fill-rule:evenodd;stroke:none"
         d="m 52.5773,39.3902 c -1.5506,2.6122 -1.4202,4.2166 0,5.9831 1.6013,-2.8811 1.7016,-4.1096 0,-5.9831 z m 5.9661,12.1247 -12.1598,-1.3428 c -1.0301,-2.4327 0.3883,-2.0721 -3.0711,-3.121 -2.91,-0.8824 -1.8972,-0.3772 -4.5388,0.1299 1.1018,-5.8833 0.8212,-1.9976 -1.4389,-2.4764 l 0.0202,-2.2289 1.9995,-1.2628 1.7816,-0.0521 -0.3059,-3.9385 c 2.6394,-0.4887 4.0465,-1.1307 5.946,-2.2513 l -0.7982,6.6218 c 2.3391,-1.2731 2.5577,1.2339 3.2587,-4.7053 l 1.3354,-5.4623 -2.9155,1.9689 -0.4833,-5.2197 c -2.4355,-0.2123 -1.0394,-0.3725 -2.6424,0.375 -1.5055,-1.0737 -0.4425,-0.5411 -1.3051,-1.5831 l 2.1589,-0.8068 c -1.124,-1.1758 -1.3164,-1.8079 -1.8825,-2.6129 4.6187,-0.3765 6.9894,-0.6466 12.7165,-0.3073 l 0.2866,2.7221 c -2.7735,1.9009 -4.9714,6.2473 -6.4148,9.9989 5.616,-0.5326 0.8098,0.6888 5.5768,-2.9262 1.1254,1.1069 1.0868,1.0077 2.7953,2.4032 l -0.9916,2.8602 c -0.7574,0.3007 -3.2309,-0.8521 -1.8938,6.1052 1.3167,-1.7917 1.4624,3.5964 0.4105,-4.3072 l 5.0349,-1.1364 0.7336,-3.2278 c 1.3864,-0.6075 0.8832,1.5009 1.0182,-0.8555 0.8668,-1.0384 1.62,-1.2699 2.2688,-3.0957 0.849,-2.3896 0.3637,-1.6127 0.529,-4.2455 -0.0499,-0.1083 -1.4154,-0.0612 0.0051,-3.0033 2.357,3.4376 2.0225,6.5982 2.8133,11.9052 0.3,2.0126 0.0828,0.0613 0.2801,2.0209 0.0187,0.1853 0.0116,1.0919 0.1131,2.0364 -2.3879,-1.5239 -1.19,0.8356 -1.69,-2.2887 l 0.021,1.5233 c -1.7258,0.6134 -3.0101,1.2104 -4.9595,1.7291 1.9893,3.3325 0.9632,2.4424 3.8092,5.0228 2.4193,2.1934 1.7835,1.6928 3.465,4.4294 l -1.9865,0.2846 c -1.0216,-2.7428 -0.3529,-1.2198 -2.353,-2.9211 -5.2149,-4.4365 -2.0347,-4.1369 -4.9428,-5.442 -1.5077,-0.6766 0.7294,-0.0298 -1.9258,-0.2452 2.5117,4.7696 2.5721,1.7598 3.6841,8.5473 l 1.8525,0.0627 -3.4169,0.5431 c -0.6868,-4.0881 -1.2912,-5.1299 -5.1352,-5.4009 2.0695,2.0308 2.2067,1.7312 3.3375,5.1767" /><path
         inkscape:connector-curvature="0"
         id="path26"
         style="fill:#02ff01;fill-opacity:1;fill-rule:evenodd;stroke:none"
         d="m 65.5722,27.5346 c -1.84,-0.807 -1.3488,-0.4073 -2.3131,-0.6435 -0.6069,-0.9575 -1.7099,-2.9315 -2.2051,-3.4775 -1.8955,-2.0894 0.4127,-0.4326 -2.8862,-1.8584 l -0.7623,-0.0357 c -1.2067,-2.4704 -1.7957,-3.4214 -5.8572,-3.5436 -3.9736,-0.1199 -5.2713,0.9672 -7.2388,2.6907 l -5.9791,-0.6293 -2.1368,-0.9689 c 7.4571,-12.257 31.4362,-11.5866 36.1919,2.6285 -4.513,-0.4847 -8.8285,-3.3105 -11.9707,-2.4358 0.4411,1.7479 -1.3901,2.6042 6.211,3.6907 4.6953,0.6713 5.2163,-0.0895 5.7943,3.5638 -1.0128,2.048 -1.5117,3.255 -2.6442,5.3651 0.756,1.7682 0.9615,1.6036 1.4049,2.4143 1.167,2.133 -0.0601,-0.9522 1.0735,2.391 -1.2144,1.0806 -0.6047,0.9502 -1.5934,2.2172 -2.0049,2.5697 -0.0839,0.7359 -1.8771,1.5906 -0.1015,-0.9445 -0.0944,-1.8511 -0.1131,-2.0364 -0.1973,-1.9596 0.0199,-0.0083 -0.2801,-2.0209 -0.7908,-5.307 -0.4563,-8.4676 -2.8133,-11.9052 -1.4205,2.9421 -0.055,2.895 -0.0051,3.0033" /><path
         inkscape:connector-curvature="0"
         id="path28"
         style="fill:#02ff01;fill-opacity:1;fill-rule:evenodd;stroke:none"
         d="m 4.2367,30.0458 0.252,-3.6082 c 3.7836,-1.8641 3.0432,-4.4631 3.0886,-4.568 3.8081,1.7047 6.0191,3.6479 9.9935,4.2094 l 1.7708,-0.7393 c 0.0718,0.0034 0.3328,0.1959 0.5125,0.264 l -0.0099,8.2822 -7.3049,0.2322 1.7813,-1.5475 c 1.1053,-1.0218 0.7413,-0.5606 1.607,-1.5851 l -5.1871,3e-4 c -1.0522,4.3115 0.3855,8.6936 1.5698,12.9654 0.2112,-0.1812 0.5219,-0.1905 0.6086,-0.5718 l 3.6584,-3.8987 3.6904,0.5487 c 0.267,1.3879 1.5092,0.9508 0.1015,2.8171 -0.0513,0.0681 -0.3285,0.1922 -0.398,0.254 l -1.5092,0.7226 c -1.2809,1.2546 -2.0525,4.498 -2.8797,6.5772 C 6.7184,50.4754 6.4619,37.3139 4.2367,30.0458" /><path
         inkscape:connector-curvature="0"
         id="path30"
         style="fill:#06f507;fill-opacity:1;fill-rule:evenodd;stroke:none"
         d="m 26.6581,38.9251 -1.159,-0.9919 -1.9302,-1.5936 0.1525,7.397 c 2.2791,-0.8787 3.4597,-2.2842 2.9367,-4.8115 z m -7.734,9.4739 -0.1352,-2.5183 c 0.1689,-0.1695 0.4623,-0.3481 0.5632,-0.4447 0.4916,-0.4706 2.0716,-0.9054 1.8159,-3.4112 -0.2568,-2.5186 -1.1293,-2.1762 -2.7558,-4.1304 l 0.5607,-2.7595 2.0854,-0.7257 1.0409,-8.5096 c -1.6282,-0.9811 -1.4485,-0.6044 -2.221,-1.203 -2.1965,-1.7022 -1.2441,-0.8275 -2.5271,-2.602 l 6.1189,-0.0178 0.3589,6.7303 c 0.3654,1.8958 0.4399,1.3989 0.9958,2.321 1.4454,-1.6702 0.9346,-1.0381 1.9749,-2.9999 0.8759,-1.4848 0.9641,-1.9701 1.6441,-3.3953 1.4272,-2.9926 0.2214,-1.9063 2.5928,-3.1476 4.2665,2.8233 -0.553,9.1817 -1.9893,12.2955 1.3711,2.088 3.4702,5.2299 3.1926,8.2967 l 0.4842,1.8499 c -2.2093,0.2415 -0.4215,-0.9929 -3.0844,0.9536 -2.512,1.8363 -0.9873,1.3513 -1.487,2.4514 -3.1303,1.004 -2.1025,0.5624 -4.2265,3.0572 z" /><path
         inkscape:connector-curvature="0"
         id="path32"
         style="fill:#02ff01;fill-opacity:1;fill-rule:evenodd;stroke:none"
         d="m 89.077,47.7116 -1.7061,0.0099 -1.1435,-6.3051 4.9878,1.4069 0.292,-3.2661 -0.0097,-1.8451 c 0.9879,-0.4785 0.243,-0.4408 2.1399,-0.752 0.5063,-0.0831 2.2436,-0.1542 2.84,-0.1981 0.1392,4.1938 -0.8623,6.1886 2.0997,8.3154 2.7428,-0.7486 1.1599,0.388 2.2422,-2.4404 0.5128,-5.5349 1.5145,-1.2418 0.6176,-6.5531 1.1305,-2.2048 0.184,-1.2053 1.9344,-2.4046 1.4352,-0.9834 2.0435,-0.9247 3.7349,-1.6115 -0.2109,4.375 1.3292,6.1308 3.043,8.8506 -2.4522,2.6665 2.9724,-3.1144 -1.269,1.2229 -0.1208,0.1233 -0.3895,0.3965 -0.514,0.5258 -0.1357,0.1409 -0.4266,0.4623 -0.5445,0.5868 -0.1239,0.1301 -0.3807,0.4098 -0.5655,0.6199 l -2.842,-0.6299 -0.8493,8.0745 -6.1208,-1.3575 c -3.0748,-0.2562 -1.0738,-0.4918 -1.8307,1.2796 -4.7205,-0.9383 -4.7012,-0.288 -6.5364,-3.5289" /><path
         inkscape:connector-curvature="0"
         id="path34"
         style="fill:#100811;fill-opacity:1;fill-rule:evenodd;stroke:none"
         d="m 31.0365,21.5853 c -1.6038,0.3634 -0.32,0.1332 -0.6624,-1.575 3.1691,0.2078 4.4617,-0.1859 7.9563,0.027 l 5.9791,0.6293 c 15.0726,-1.0832 4.1731,0.3863 13.096,0.8529 l 0.7623,0.0357 c -0.0397,2.6626 -0.2472,2.9778 -0.4873,5.4006 -0.0414,0.4189 -0.2234,2.6705 -0.1959,2.9611 0.2634,2.787 -0.3313,1.2115 1.0925,2.726 0.095,0.1817 0.2381,0.4442 0.3283,0.5205 l 1.0204,0.8898 c 1.3133,0.7733 1.7107,0.5417 2.8486,0.8226 -0.135,2.3564 0.3682,0.248 -1.0182,0.8555 l -3.2936,-0.294 C 56.7541,34.0418 56.7927,34.141 55.6673,33.0341 l 0.838,-7.0727 -0.2866,-2.7221 C 50.4916,22.9 48.1209,23.1701 43.5022,23.5466 l -4.4053,0.422 c -0.6719,3.8203 -0.902,3.1315 0.5068,6.6379 l 4.1734,-0.6216 c -1.7555,3.3086 -1.7926,2.7278 -5.9249,2.5781 l -0.563,-8.5927 c -0.4618,-3.8644 0.1157,-0.5286 -0.7121,-2.1807 -2.6625,1.2595 -2.5534,0.205 -2.6161,5.0392 -0.1119,8.6352 4.1698,8.9898 5.5321,9.5216 2.78,1.0856 -0.1054,-0.8351 1.3371,0.8719 l 0.3059,3.9385 -1.7816,0.0521 C 39.2298,37.6872 37.5568,37.1795 35.3597,37.724 l -2.7825,-6.8746 c -0.7583,0.6849 -1.1872,-1.644 -1.6053,2.1694 l 1.2679,9.1587 c 0.2776,-3.0668 -1.8215,-6.2087 -3.1926,-8.2967 1.4363,-3.1138 6.2558,-9.4722 1.9893,-12.2955" /><path
         inkscape:connector-curvature="0"
         id="path36"
         style="fill:#091d0b;fill-opacity:1;fill-rule:evenodd;stroke:none"
         d="m 96.4774,36.762 c 0.2033,-1.772 0.3722,-0.8357 0.114,-2.8704 -0.2534,-1.9939 -0.0901,-1.3207 -0.9802,-2.2935 1.6055,-5.853 1.2937,1.9584 2.3675,-5.7175 -3.2216,-2.0115 -7.325,-2.0503 -12.2814,-2.679 l 0.4521,-1.8927 c 1.1622,-1.76 -1.0599,-1.3363 4.8022,0.091 11.416,2.7796 14.4907,-1.1061 19.5361,1.3476 l 3.3055,2.2121 -1.4854,3.299 -3.9898,5.5984 3.9357,6.0585 -0.7875,1.6447 c -2.1322,1.7617 -1.1373,1.205 -4.21,2.3136 0.1848,-0.2101 0.4416,-0.4898 0.5655,-0.6199 0.1179,-0.1245 0.4088,-0.4459 0.5445,-0.5868 0.1245,-0.1293 0.3932,-0.4025 0.514,-0.5258 4.2414,-4.3373 -1.1832,1.4436 1.269,-1.2229 -1.7138,-2.7198 -3.2539,-4.4756 -3.043,-8.8506 2.1881,-2.6481 2.649,-3.886 2.1048,-7.1453 l -9.6075,0.2251 0.3642,6.3878 c -0.737,-0.5485 -1.4808,-1.3524 -1.6021,-1.0998 -0.227,0.4717 -1.2186,-0.2894 -1.7836,-0.5499 0.8255,3.9435 0.8935,5.0652 1.2581,9.0317 0.2633,2.8661 -0.2376,4.1522 2.9792,3.7196 -1.0823,2.8284 0.5006,1.6918 -2.2422,2.4404 -2.962,-2.1268 -1.9605,-4.1216 -2.0997,-8.3154" /><path
         inkscape:connector-curvature="0"
         id="path38"
         style="fill:#6d6150;fill-opacity:1;fill-rule:evenodd;stroke:none"
         d="m 87.414,52.5441 c 3.3601,-2.3156 1.3963,0.6231 1.663,-4.8325 1.8352,3.2409 1.8159,2.5906 6.5364,3.5289 l 1.8307,-1.2796 6.1208,1.3575 0.8493,-8.0745 2.842,0.6299 c 3.0727,-1.1086 2.0778,-0.5519 4.21,-2.3136 1.849,2.9298 -0.9453,-0.065 1.9369,2.6861 l -3.27,0.2474 1.4658,0.9128 -2.8829,0.3773 c -0.189,4.2704 0.836,5.1361 2.5835,8.3645 -3.3284,-0.112 -2.044,1.125 -3.7173,-0.2725 0.0558,-9.3702 0.648,-1.8144 -1.8831,-4.9901 1.0089,5.5894 1.5191,1.997 -1.1579,5.1843 l -1.9642,-1.2382 c -3.1028,1.3422 -10.3583,3.2191 -13.8251,-0.0147 -0.1015,4.3673 0.2696,1.0205 -1.298,2.3363 z" /><path
         inkscape:connector-curvature="0"
         id="path40"
         style="fill:#413933;fill-opacity:1;fill-rule:evenodd;stroke:none"
         d="m 1.9607,28.7518 c 1.0865,4.8988 2.8712,9.4229 4.4586,14.4814 2.001,6.3754 6.8831,11.8471 13.489,7.1847 l 2.0514,1.0148 -7.3825,5.1417 C 10.5931,54.1553 6.4001,52.1991 4.3807,47.147 3.054,43.8276 0.3183,34.2544 0,30.7956 Z" /><path
         inkscape:connector-curvature="0"
         id="path42"
         style="fill:#02ff01;fill-opacity:1;fill-rule:evenodd;stroke:none"
         d="m 35.8716,53.7233 c 0.3954,7.5104 -0.8291,9.9746 4.0711,14.7881 7.8647,7.7261 20.776,6.4704 28.0967,-1.1965 1.9384,-2.0299 2.8435,-3.6147 3.1748,-6.7958 0.4006,-3.8409 -1.1018,-5.0199 0.3629,-7.6138 3.0846,4.9651 0.9037,12.2544 -2.0756,15.9052 -2.9338,3.5951 -8.2868,6.1061 -14.8889,6.4712 -10.5313,0.5825 -20.2969,-6.6425 -20.5283,-16.4157 -0.0158,-0.6704 0.074,-2.3179 0.2736,-2.9413 0.7673,-2.3967 0.2449,-0.7855 1.5137,-2.2014" /><path
         inkscape:connector-curvature="0"
         id="path44"
         style="fill:#a8945c;fill-opacity:1;fill-rule:evenodd;stroke:none"
         d="m 67.2415,52.867 -2.342,0.3844 c -5.4624,0.6315 -8.3571,-0.3351 -13.3586,-1.1503 -6.8482,-1.1166 -6.5366,0.2551 -12.1271,1.3104 l -3.4796,-6.5307 c 0.6792,-2.0617 -0.7214,-1.3017 1.4006,-2.1762 2.2601,0.4788 2.5407,-3.4069 1.4389,2.4764 -0.7914,0.5363 -1.1631,-0.8691 -0.0992,2.0455 l 1.5707,2.3635 3.4554,-1.9395 2.683,0.5216 12.1598,1.3428 1.7977,0.2242 3.4169,-0.5431 3.685,-0.0017 1.9865,-0.2846 1.2754,-0.0553 c 4.0782,0.1891 5.3872,-0.6871 9.1176,-0.8705 l -1.7873,4.8968 c 2.4866,4.4895 -0.6601,0.7929 3.6956,3.5286 -6.4633,0.286 -3.6306,-1.8627 -6.1742,-6.6671 z" /><path
         inkscape:connector-curvature="0"
         id="path46"
         style="fill:#02ff01;fill-opacity:1;fill-rule:evenodd;stroke:none"
         d="m 90.256,33.1089 -0.3206,-4.5277 c -2.1663,1.2033 -0.883,-1.0338 -2.5101,2.0871 l -0.5939,-0.0057 -1.0902,-1.0247 -0.7027,-4.1298 c 0.4643,-2.0352 -0.1876,-0.9334 0.6588,-2.3065 4.9564,0.6287 9.0598,0.6675 12.2814,2.679 -1.0738,7.6759 -0.762,-0.1355 -2.3675,5.7175 l 0.6247,4.4864 z" /><path
         inkscape:connector-curvature="0"
         id="path48"
         style="fill:#02ff01;fill-opacity:1;fill-rule:evenodd;stroke:none"
         d="m 43.7771,29.9849 0.7538,-1.4355 c 1.603,-0.7475 0.2069,-0.5873 2.6424,-0.375 l 0.4833,5.2197 -0.8804,1.5769 c -1.8995,1.1206 -3.3066,1.7626 -5.946,2.2513 -1.4425,-1.707 1.4429,0.2137 -1.3371,-0.8719 -1.3623,-0.5318 -5.644,-0.8864 -5.5321,-9.5216 0.0627,-4.8342 -0.0464,-3.7797 2.6161,-5.0392 0.8278,1.6521 0.2503,-1.6837 0.7121,2.1807 l 0.563,8.5927 c 4.1323,0.1497 4.1694,0.7305 5.9249,-2.5781" /><path
         inkscape:connector-curvature="0"
         id="path50"
         style="fill:#02ff01;fill-opacity:1;fill-rule:evenodd;stroke:none"
         d="m 77.4573,36.3586 c 3.573,-4.2673 3.1229,-3.5853 5.1352,-9.2945 1.2331,1.0876 2.1183,-1.6977 0.6384,2.0026 l -0.2362,11.3964 c 1.0758,-5.1207 -0.4203,-1.6843 2.9764,-2.6461 L 85.2622,48.0657 82.2447,47.6833 C 80.3035,43.763 77.3994,40.284 77.4573,36.3586" /><path
         inkscape:connector-curvature="0"
         id="path52"
         style="fill:#091d0b;fill-opacity:1;fill-rule:evenodd;stroke:none"
         d="m 17.3511,22.0946 -1.3169,1.7862 c 0.2231,0.2298 0.4016,0.714 0.4776,0.8339 0.0706,0.112 0.447,0.3328 0.5119,0.7328 0.061,0.3739 0.3127,0.481 0.5471,0.6315 -3.9744,-0.5615 -6.1854,-2.5047 -9.9935,-4.2094 -0.0454,0.1049 0.695,2.7039 -3.0886,4.568 l -0.252,3.6082 C 2.8709,27.6681 2.5994,27.828 4.392,25.0466 L 4.6593,24.3938 C 5.4351,23.1749 5.1426,24.0786 5.8408,22.0147 6.3726,20.4432 5.923,21.1734 6.2586,19.1265 L 8.8603,18.86 c 2.4193,1.0735 3.3343,2.0994 5.6868,1.9103 3.5955,-0.2891 1.5041,-1.8255 10.0029,-0.9218 l 1.3655,3.0141 c -0.0437,0.4611 -0.2937,2.8187 -0.241,3.1478 0.44,2.7491 -0.7628,0.6871 1.1251,2.1178 -1.0403,1.9618 -0.5295,1.3297 -1.9749,2.9999 -0.5559,-0.9221 -0.6304,-0.4252 -0.9958,-2.321 L 23.47,22.0768 Z" /><path
         inkscape:connector-curvature="0"
         id="path54"
         style="fill:#06f507;fill-opacity:1;fill-rule:evenodd;stroke:none"
         d="m 41.2713,60.8808 c 0.4774,6.2722 4.7942,9.015 12.0433,7.6981 6.9114,-1.2558 4.8282,-7.4353 7.2626,-12.9918 2.8239,4.9601 -1.2418,14.1092 -8.2193,14.9842 -7.2204,0.9057 -14.908,-4.2049 -12.2088,-11.0619 1.125,-2.001 2.8615,-1.7413 4.3061,-2.7595 2.1379,-1.5069 0.7948,-1.4925 3.2479,-3.5742 -0.0652,6.1208 -2.8102,4.1757 -6.4318,7.7051" /><path
         inkscape:connector-curvature="0"
         id="path56"
         style="fill:#1f1618;fill-opacity:1;fill-rule:evenodd;stroke:none"
         d="m 68.3572,46.2909 -2.4015,-2.677 1.1591,-3.8855 -0.021,-1.5233 c 0.5,3.1243 -0.6979,0.7648 1.69,2.2887 -0.1309,4.185 -1.0522,1.0627 0.7934,3.2828 3.7432,-1.7283 4.5828,-1.4511 7.9949,-0.9009 -1.5546,-3.2167 0.9734,-5.5137 -3.9949,-1.5383 0.1752,-0.2458 0.4737,-0.5239 0.5794,-0.6957 l 0.8884,-1.3501 c 0.7903,-2.5583 -1.548,-2.4786 -2.7907,-2.6056 -1.1336,-3.3432 0.0935,-0.258 -1.0735,-2.391 -0.4434,-0.8107 -0.6489,-0.6461 -1.4049,-2.4143 1.1325,-2.1101 1.6314,-3.3171 2.6442,-5.3651 l -0.0442,0.6695 c -0.5885,1.2433 -1.2938,1.7541 -1.3247,2.4163 -0.1252,2.6852 -1.5307,0.1814 1.4256,2.3567 l 0.9581,1.1378 c 1.4477,1.7464 1.5897,1.7039 3.7585,3.3534 l 0.2639,-0.0907 c -0.0579,3.9254 2.8462,7.4044 4.7874,11.3247 l -3.4158,0.5998 -0.6077,-5.6934 c -2.5583,1.0341 -6.6294,2.4797 -9.864,3.7012" /><path
         inkscape:connector-curvature="0"
         id="path58"
         style="fill:#a8945c;fill-opacity:1;fill-rule:evenodd;stroke:none"
         d="M 1.9607,28.7518 C 2.2606,26.7922 1.4332,25.7136 4.392,25.0466 2.5994,27.828 2.8709,27.6681 4.2367,30.0458 c 2.2252,7.2681 2.4817,20.4296 11.3456,20.3545 2.4784,-1.1203 0.2551,0.614 3.3418,-2.0013 l 5.002,2.0906 c 2.124,-2.4948 1.0962,-2.0532 4.2265,-3.0572 -0.44,1.5165 0.822,1.1319 -2.1578,2.9339 -1.2007,0.7259 -2.7028,0.9039 -4.0351,1.0664 L 19.9083,50.4179 C 13.3024,55.0803 8.4203,49.6086 6.4193,43.2332 4.8319,38.1747 3.0472,33.6506 1.9607,28.7518" /><path
         inkscape:connector-curvature="0"
         id="path60"
         style="fill:#124314;fill-opacity:1;fill-rule:evenodd;stroke:none"
         d="m 12.5393,34.1181 -0.3047,-0.2325 0.9298,5.408 c 5.0318,-1.1248 -2.1674,-1.823 5.2478,-1.3992 1.6265,1.9542 2.499,1.6118 2.7558,4.1304 0.2557,2.5058 -1.3243,2.9406 -1.8159,3.4112 -0.1009,0.0966 -0.3943,0.2752 -0.5632,0.4447 l 0.1352,2.5183 c -3.0867,2.6153 -0.8634,0.881 -3.3418,2.0013 0.8272,-2.0792 1.5988,-5.3226 2.8797,-6.5772 l 1.5092,-0.7226 c 0.0695,-0.0618 0.3467,-0.1859 0.398,-0.254 1.4077,-1.8663 0.1655,-1.4292 -0.1015,-2.8171 l -3.6904,-0.5487 -3.6584,3.8987 C 12.8322,43.7607 12.5215,43.77 12.3103,43.9512 11.126,39.6794 9.6883,35.2973 10.7405,30.9858 l 5.1871,-3e-4 c -0.8657,1.0245 -0.5017,0.5633 -1.607,1.5851 z" /><path
         inkscape:connector-curvature="0"
         id="path62"
         style="fill:#02ff01;fill-opacity:1;fill-rule:evenodd;stroke:none"
         d="m 107.1062,32.0678 c -1.1851,-4.1338 1.9667,-0.415 -1.7107,-2.8233 l -2.8213,3.8202 -2.5214,-0.1386 -0.0851,-1.3907 -0.3642,-6.3878 9.6075,-0.2251 c 0.5442,3.2593 0.0833,4.4972 -2.1048,7.1453" /><path
         inkscape:connector-curvature="0"
         id="path64"
         style="fill:#39322c;fill-opacity:1;fill-rule:evenodd;stroke:none"
         d="m 68.3572,46.2909 c 3.2346,-1.2215 7.3057,-2.6671 9.864,-3.7012 l 0.6077,5.6934 0.9936,1.7008 c -3.7304,0.1834 -5.0394,1.0596 -9.1176,0.8705 -0.436,-2.1903 -0.3351,-1.4879 -0.8042,-2.3462 z" /><path
         inkscape:connector-curvature="0"
         id="path66"
         style="fill:#06f507;fill-opacity:1;fill-rule:evenodd;stroke:none"
         d="m 111.2995,54.1483 c -1.7475,-3.2284 -2.7725,-4.0941 -2.5835,-8.3645 l 2.8829,-0.3773 c 7.4075,4.7829 2.1472,3.2224 5.1735,8.6698 1.1296,-2.5076 1.5707,-4.4244 0.3115,-7.8617 2.4557,2.4531 1.5491,3.6309 0.917,7.1164 l -3.0753,1.2218 c -3.1725,0.2423 -0.7021,0.0025 -3.6261,-0.4045" /><path
         inkscape:connector-curvature="0"
         id="path68"
         style="fill:#4c433a;fill-opacity:1;fill-rule:evenodd;stroke:none"
         d="m 58.5771,32.6429 0.3781,-8.7573 3.5521,2.4891 c 0.197,0.1375 0.4995,0.3467 0.7518,0.5164 0.9643,0.2362 0.4731,-0.1635 2.3131,0.6435 -0.1653,2.6328 0.32,1.8559 -0.529,4.2455 -0.6488,1.8258 -1.402,2.0573 -2.2688,3.0957 -1.1379,-0.2809 -1.5353,-0.0493 -2.8486,-0.8226 l -1.0204,-0.8898 c -0.0902,-0.0763 -0.2333,-0.3388 -0.3283,-0.5205" /><path
         inkscape:connector-curvature="0"
         id="path70"
         style="fill:#0c300e;fill-opacity:1;fill-rule:evenodd;stroke:none"
         d="m 83.2309,29.0667 2.5103,0.5712 1.0902,1.0247 c -2.2711,1.2926 -1.2016,-2.0579 -2.1013,2.5277 -0.5958,3.0379 0.9805,2.918 1.2382,3.2125 1.8241,2.0849 3.289,2.6461 5.5389,3.1544 l -0.292,3.2661 -4.9878,-1.4069 1.1435,6.3051 -2.1087,0.3442 0.7089,-10.2487 c -3.3967,0.9618 -1.9006,-2.4746 -2.9764,2.6461 z" /><path
         inkscape:connector-curvature="0"
         id="path72"
         style="fill:#a8945c;fill-opacity:1;fill-rule:evenodd;stroke:none"
         d="m 32.724,44.0274 -0.4842,-1.8499 -1.2679,-9.1587 c 0.4181,-3.8134 0.847,-1.4845 1.6053,-2.1694 l 2.7825,6.8746 1.9953,4.7517 -0.0202,2.2289 -1.2441,-1.3926 c -0.2497,-0.2988 -0.0754,-3.3466 -1.1426,-1.4191 -0.1146,0.207 -0.4255,-0.5507 -0.6594,-0.8078 -0.5646,3.6306 0.8445,1.6353 -1.5647,2.9423" /><path
         inkscape:connector-curvature="0"
         id="path74"
         style="fill:#816c3b;fill-opacity:1;fill-rule:evenodd;stroke:none"
         d="m 99.9677,31.5354 0.0851,1.3907 1.3841,3.1578 c 0.8969,5.3113 -0.1048,1.0182 -0.6176,6.5531 -3.2168,0.4326 -2.7159,-0.8535 -2.9792,-3.7196 -0.3646,-3.9665 -0.4326,-5.0882 -1.2581,-9.0317 0.565,0.2605 1.5566,1.0216 1.7836,0.5499 0.1213,-0.2526 0.8651,0.5513 1.6021,1.0998" /><path
         inkscape:connector-curvature="0"
         id="path76"
         style="fill:#413933;fill-opacity:1;fill-rule:evenodd;stroke:none"
         d="m 68.7838,40.4938 c 1.7932,-0.8547 -0.1278,0.9791 1.8771,-1.5906 0.9887,-1.267 0.379,-1.1366 1.5934,-2.2172 1.2427,0.127 3.581,0.0473 2.7907,2.6056 l -0.8884,1.3501 c -0.1057,0.1718 -0.4042,0.4499 -0.5794,0.6957 4.9683,-3.9754 2.4403,-1.6784 3.9949,1.5383 -3.4121,-0.5502 -4.2517,-0.8274 -7.9949,0.9009 -1.8456,-2.2201 -0.9243,0.9022 -0.7934,-3.2828" /><path
         inkscape:connector-curvature="0"
         id="path78"
         style="fill:#39322c;fill-opacity:1;fill-rule:evenodd;stroke:none"
         d="m 104.5412,54.07 c 2.677,-3.1873 2.1668,0.4051 1.1579,-5.1843 2.5311,3.1757 1.9389,-4.3801 1.8831,4.9901 1.6733,1.3975 0.3889,0.1605 3.7173,0.2725 2.924,0.407 0.4536,0.6468 3.6261,0.4045 l -2.0361,1.4071 c -0.2206,0.1142 -0.4689,0.2917 -0.7212,0.3997 -3.7423,1.6007 -5.7849,1.5939 -7.6271,-2.2896" /><path
         inkscape:connector-curvature="0"
         id="path80"
         style="fill:#0fb90d;fill-opacity:1;fill-rule:evenodd;stroke:none"
         d="m 67.443,51.1943 -3.685,0.0017 -1.8525,-0.0627 c -1.112,-6.7875 -1.1724,-3.7777 -3.6841,-8.5473 2.6552,0.2154 0.4181,-0.4314 1.9258,0.2452 2.9081,1.3051 -0.2721,1.0055 4.9428,5.442 2.0001,1.7013 1.3314,0.1783 2.353,2.9211" /><path
         inkscape:connector-curvature="0"
         id="path82"
         style="fill:#a8945c;fill-opacity:1;fill-rule:evenodd;stroke:none"
         d="m 86.8314,30.6626 0.5939,0.0057 2.8307,2.4406 0.1749,3.7222 c -1.4324,-2.6079 -0.9919,-2.6393 -3.9365,-4.1499 0.8478,2.9177 -0.1012,1.5333 1.7073,3.7122 1.2308,1.4831 0.6191,0.7793 2.0823,1.342 l 1.2135,-0.0233 0.0097,1.8451 c -2.2499,-0.5083 -3.7148,-1.0695 -5.5389,-3.1544 -0.2577,-0.2945 -1.834,-0.1746 -1.2382,-3.2125 0.8997,-4.5856 -0.1698,-1.2351 2.1013,-2.5277" /><path
         inkscape:connector-curvature="0"
         id="path84"
         style="fill:#0b850e;fill-opacity:1;fill-rule:evenodd;stroke:none"
         d="m 17.5708,26.079 c -0.2344,-0.1505 -0.4861,-0.2576 -0.5471,-0.6315 -0.0649,-0.4 -0.4413,-0.6208 -0.5119,-0.7328 -0.076,-0.1199 -0.2545,-0.6041 -0.4776,-0.8339 l 1.3169,-1.7862 c 1.283,1.7745 0.3306,0.8998 2.5271,2.602 0.7725,0.5986 0.5928,0.2219 2.221,1.203 l -1.0409,8.5096 -2.0854,0.7257 -6.7383,-1.2493 0.3047,0.2325 7.3049,-0.2322 0.0099,-8.2822 c -0.1797,-0.0681 -0.4407,-0.2606 -0.5125,-0.264 z" /><path
         inkscape:connector-curvature="0"
         id="path86"
         style="fill:#06f507;fill-opacity:1;fill-rule:evenodd;stroke:none"
         d="m 56.5053,25.9614 -0.838,7.0727 c -4.767,3.615 0.0392,2.3936 -5.5768,2.9262 1.4434,-3.7516 3.6413,-8.098 6.4148,-9.9989" /><path
         inkscape:connector-curvature="0"
         id="path88"
         style="fill:#06f507;fill-opacity:1;fill-rule:evenodd;stroke:none"
         d="m 67.1148,39.7284 -1.1591,3.8855 2.4015,2.677 1.5435,2.2173 c 0.4691,0.8583 0.3682,0.1559 0.8042,2.3462 l -1.2754,0.0553 c -1.6815,-2.7366 -1.0457,-2.236 -3.465,-4.4294 -2.846,-2.5804 -1.8199,-1.6903 -3.8092,-5.0228 1.9494,-0.5187 3.2337,-1.1157 4.9595,-1.7291" /><path
         inkscape:connector-curvature="0"
         id="path90"
         style="fill:#3d2f31;fill-opacity:1;fill-rule:evenodd;stroke:none"
         d="m 57.4055,21.5195 c -8.9229,-0.4666 1.9766,-1.9361 -13.096,-0.8529 1.9675,-1.7235 3.2652,-2.8106 7.2388,-2.6907 4.0615,0.1222 4.6505,1.0732 5.8572,3.5436" /><path
         inkscape:connector-curvature="0"
         id="path92"
         style="fill:#b5a270;fill-opacity:1;fill-rule:evenodd;stroke:none"
         d="m 81.4266,50.5528 -1.6041,-0.5689 -0.9936,-1.7008 3.4158,-0.5998 3.0175,0.3824 2.1087,-0.3442 1.7061,-0.0099 c -0.2667,5.4556 1.6971,2.5169 -1.663,4.8325 -0.548,-0.9207 -0.1735,-2.1603 -2.9526,-2.7955 -2.5829,-0.5902 -2.039,0.2772 -3.0348,0.8042" /><path
         inkscape:connector-curvature="0"
         id="path94"
         style="fill:#020203;fill-opacity:1;fill-rule:evenodd;stroke:none"
         d="m 111.5989,45.4065 -1.4658,-0.9128 3.27,-0.2474 c 2.8729,0.4989 1.8482,-0.0607 3.6808,1.9683 1.2592,3.4373 0.8181,5.3541 -0.3115,7.8617 -3.0263,-5.4474 2.234,-3.8869 -5.1735,-8.6698" /><path
         inkscape:connector-curvature="0"
         id="path96"
         style="fill:#95824c;fill-opacity:1;fill-rule:evenodd;stroke:none"
         d="m 46.7762,34.971 0.8804,-1.5769 2.9155,-1.9689 -1.3354,5.4623 c -0.701,5.9392 -0.9196,3.4322 -3.2587,4.7053 z" /><path
         inkscape:connector-curvature="0"
         id="path98"
         style="fill:#816c3b;fill-opacity:1;fill-rule:evenodd;stroke:none"
         d="m 12.2346,33.8856 6.7383,1.2493 -0.5607,2.7595 c -7.4152,-0.4238 -0.216,0.2744 -5.2478,1.3992 z" /><path
         inkscape:connector-curvature="0"
         id="path100"
         style="fill:#a8945c;fill-opacity:1;fill-rule:evenodd;stroke:none"
         d="m 41.561,28.2056 c 1.6107,0.038 -1.8995,-2.4724 -1.2401,-0.3249 0.6066,1.9749 -2.0713,0.2472 1.2401,0.3249 z m -2.4641,-4.237 c 1.0663,0.8833 2.645,1.7912 4.1289,2.9977 0.8626,1.042 -0.2004,0.5094 1.3051,1.5831 l -0.7538,1.4355 -4.1734,0.6216 C 38.1949,27.1001 38.425,27.7889 39.0969,23.9686" /><path
         inkscape:connector-curvature="0"
         id="path102"
         style="fill:#0ade0b;fill-opacity:1;fill-rule:evenodd;stroke:none"
         d="m 38.6745,49.2265 c -1.0639,-2.9146 -0.6922,-1.5092 0.0992,-2.0455 2.6416,-0.5071 1.6288,-1.0123 4.5388,-0.1299 3.4594,1.0489 2.041,0.6883 3.0711,3.121 l -2.683,-0.5216 z" /><path
         inkscape:connector-curvature="0"
         id="path104"
         style="fill:#020203;fill-opacity:1;fill-rule:evenodd;stroke:none"
         d="m 82.6089,50.9811 -1.1823,-0.4283 c 0.9958,-0.527 0.4519,-1.3944 3.0348,-0.8042 2.7791,0.6352 2.4046,1.8748 2.9526,2.7955 l 0.0399,2.6093 c -1.3181,3.5119 -0.0399,1.006 -1.5797,1.4794 l -1.1957,-0.0703 1.08,-4.1122 z" /><path
         inkscape:connector-curvature="0"
         id="path106"
         style="fill:#b5a270;fill-opacity:1;fill-rule:evenodd;stroke:none"
         d="m 58.1678,21.5552 c 3.2989,1.4258 0.9907,-0.231 2.8862,1.8584 0.4952,0.546 1.5982,2.52 2.2051,3.4775 -0.2523,-0.1697 -0.5548,-0.3789 -0.7518,-0.5164 l -3.5521,-2.4891 -0.3781,8.7573 c -1.4238,-1.5145 -0.8291,0.061 -1.0925,-2.726 -0.0275,-0.2906 0.1545,-2.5422 0.1959,-2.9611 0.2401,-2.4228 0.4476,-2.738 0.4873,-5.4006" /><path
         inkscape:connector-curvature="0"
         id="path108"
         style="fill:#159a14;fill-opacity:1;fill-rule:evenodd;stroke:none"
         d="m 90.256,33.1089 5.9799,2.9756 -0.6247,-4.4864 c 0.8901,0.9728 0.7268,0.2996 0.9802,2.2935 0.2582,2.0347 0.0893,1.0984 -0.114,2.8704 -0.5964,0.0439 -2.3337,0.115 -2.84,0.1981 -1.8969,0.3112 -1.152,0.2735 -2.1399,0.752 l -1.2135,0.0233 0.1469,-0.9043 z" /><path
         inkscape:connector-curvature="0"
         id="path110"
         style="fill:#02ff01;fill-opacity:1;fill-rule:evenodd;stroke:none"
         d="m 82.6089,50.9811 3.1496,1.4692 -1.08,4.1122 -3.02,0.8031 z" /><path
         inkscape:connector-curvature="0"
         id="path112"
         style="fill:#6d6150;fill-opacity:1;fill-rule:evenodd;stroke:none"
         d="m 25.9155,22.8626 c 3.0636,-1.0398 0.5709,0.1621 3.0242,-1.5067 0.5829,-0.3965 0.8805,-1.1341 0.9905,-0.8912 0.07,0.1545 0.2849,-0.3146 0.4439,-0.4544 0.3424,1.7082 -0.9414,1.9384 0.6624,1.575 -2.3714,1.2413 -1.1656,0.155 -2.5928,3.1476 -0.68,1.4252 -0.7682,1.9105 -1.6441,3.3953 -1.8879,-1.4307 -0.6851,0.6313 -1.1251,-2.1178 -0.0527,-0.3291 0.1973,-2.6867 0.241,-3.1478" /><path
         inkscape:connector-curvature="0"
         id="path114"
         style="fill:#06f507;fill-opacity:1;fill-rule:evenodd;stroke:none"
         d="m 51.7799,55.8808 c 0.3181,-0.2721 -0.7792,-1.7357 3.2876,-0.7699 5.0979,1.2107 0.5698,-0.1766 2.49,1.7697 -2.806,2.3405 -4.0221,2.1254 -5.7776,-0.9998" /><path
         inkscape:connector-curvature="0"
         id="path116"
         style="fill:#159a14;fill-opacity:1;fill-rule:evenodd;stroke:none"
         d="m 100.0528,32.9261 2.5214,0.1386 2.8213,-3.8202 c 3.6774,2.4083 0.5256,-1.3105 1.7107,2.8233 -1.6914,0.6868 -2.2997,0.6281 -3.7349,1.6115 -1.7504,1.1993 -0.8039,0.1998 -1.9344,2.4046 z" /><path
         inkscape:connector-curvature="0"
         id="path118"
         style="fill:#06f507;fill-opacity:1;fill-rule:evenodd;stroke:none"
         d="m 64.8995,53.2514 2.342,-0.3844 -0.9196,8.4013 c -0.4904,-0.7506 -0.6905,-0.7364 -1.22,-2.3281 -0.1021,-0.3073 -0.3079,-1.2673 -0.3594,-1.5899 -0.3578,-2.242 -0.131,-2.1031 0.157,-4.0989" /><path
         inkscape:connector-curvature="0"
         id="path120"
         style="fill:#0c300e;fill-opacity:1;fill-rule:evenodd;stroke:none"
         d="m 25.4991,37.9332 -1.0786,2.4421 2.2376,-1.4502 c 0.523,2.5273 -0.6576,3.9328 -2.9367,4.8115 l -0.1525,-7.397 z" /><path
         inkscape:connector-curvature="0"
         id="path122"
         style="fill:#06f507;fill-opacity:1;fill-rule:evenodd;stroke:none"
         d="m 35.3597,37.724 c 2.1971,-0.5445 3.8701,-0.0368 3.9948,3.4889 l -1.9995,1.2628 z" /><path
         inkscape:connector-curvature="0"
         id="path124"
         style="fill:#06f507;fill-opacity:1;fill-rule:evenodd;stroke:none"
         d="m 72.3759,27.1851 c 0.9791,0.7461 1.5894,-1.6503 1.4119,2.7499 -0.1599,3.9676 -0.3889,1.5236 -1.311,2.0231 -2.9563,-2.1753 -1.5508,0.3285 -1.4256,-2.3567 0.0309,-0.6622 0.7362,-1.173 1.3247,-2.4163" /><path
         inkscape:connector-curvature="0"
         id="path126"
         style="fill:#0ade0b;fill-opacity:1;fill-rule:evenodd;stroke:none"
         d="m 39.0969,23.9686 4.4053,-0.422 c 0.5661,0.805 0.7585,1.4371 1.8825,2.6129 l -2.1589,0.8068 c -1.4839,-1.2065 -3.0626,-2.1144 -4.1289,-2.9977" /><path
         inkscape:connector-curvature="0"
         id="path128"
         style="fill:#06f507;fill-opacity:1;fill-rule:evenodd;stroke:none"
         d="m 58.4626,35.4373 3.2936,0.294 -0.7336,3.2278 -3.5516,-0.6616 z" /><path
         inkscape:connector-curvature="0"
         id="path130"
         style="fill:#0ade0b;fill-opacity:1;fill-rule:evenodd;stroke:none"
         d="m 60.3411,51.7391 -1.7977,-0.2242 c -1.1308,-3.4455 -1.268,-3.1459 -3.3375,-5.1767 3.844,0.271 4.4484,1.3128 5.1352,5.4009" /><path
         inkscape:connector-curvature="0"
         id="path132"
         style="fill:#a8945c;fill-opacity:1;fill-rule:evenodd;stroke:none"
         d="m 32.724,44.0274 -0.0683,2.2609 -2.1079,0.4148 -2.3952,0.7293 c 0.4997,-1.1001 -1.025,-0.6151 1.487,-2.4514 2.6629,-1.9465 0.8751,-0.7121 3.0844,-0.9536" /><path
         inkscape:connector-curvature="0"
         id="path134"
         style="fill:#b5a270;fill-opacity:1;fill-rule:evenodd;stroke:none"
         d="m 57.471,38.2975 3.5516,0.6616 -5.0349,1.1364 c 1.0519,7.9036 0.9062,2.5155 -0.4105,4.3072 -1.3371,-6.9573 1.1364,-5.8045 1.8938,-6.1052" /><path
         inkscape:connector-curvature="0"
         id="path136"
         style="fill:#09d10b;fill-opacity:1;fill-rule:evenodd;stroke:none"
         d="m 52.5773,39.3902 c 1.7016,1.8735 1.6013,3.102 0,5.9831 -1.4202,-1.7665 -1.5506,-3.3709 0,-5.9831" /><path
         inkscape:connector-curvature="0"
         id="path138"
         style="fill:#100811;fill-opacity:1;fill-rule:evenodd;stroke:none"
         d="m 90.4309,36.8311 -0.1469,0.9043 c -1.4632,-0.5627 -0.8515,0.1411 -2.0823,-1.342 -1.8085,-2.1789 -0.8595,-0.7945 -1.7073,-3.7122 2.9446,1.5106 2.5041,1.542 3.9365,4.1499" /><path
         inkscape:connector-curvature="0"
         id="path140"
         style="fill:#b6e67e;fill-opacity:1;fill-rule:evenodd;stroke:none"
         d="m 8.8603,18.86 -2.6017,0.2665 c -0.3356,2.0469 0.114,1.3167 -0.4178,2.8882 -0.6982,2.0639 -0.4057,1.1602 -1.1815,2.3791 l 0.1242,-3.4429 1.885,-2.979 c 4.1417,-0.718 0.8884,-0.4572 2.1918,0.8881" /><path
         inkscape:connector-curvature="0"
         id="path142"
         style="fill:#091d0b;fill-opacity:1;fill-rule:evenodd;stroke:none"
         d="m 87.4253,30.6683 c 1.6271,-3.1209 0.3438,-0.8838 2.5101,-2.0871 l 0.3206,4.5277 z" /><path
         inkscape:connector-curvature="0"
         id="path144"
         style="fill:#159a14;fill-opacity:1;fill-rule:evenodd;stroke:none"
         d="m 82.5925,27.0641 2.446,-1.556 0.7027,4.1298 -2.5103,-0.5712 c 1.4799,-3.7003 0.5947,-0.915 -0.6384,-2.0026" /><path
         inkscape:connector-curvature="0"
         id="path146"
         style="fill:#29201e;fill-opacity:1;fill-rule:evenodd;stroke:none"
         d="m 38.6745,49.2265 5.0261,0.424 -3.4554,1.9395 z" /><path
         inkscape:connector-curvature="0"
         id="path148"
         style="fill:#c99c5a;fill-opacity:1;fill-rule:evenodd;stroke:none"
         d="m 73.4349,33.0959 2.8151,0.2452 0.9434,3.1082 c -2.1688,-1.6495 -2.3108,-1.607 -3.7585,-3.3534" /><path
         inkscape:connector-curvature="0"
         id="path150"
         style="fill:#66b25b;fill-opacity:1;fill-rule:evenodd;stroke:none"
         d="m 110.4877,22.7475 c 3.4948,1.5355 2.5257,0.2661 4.0422,3.1331 -1.2158,2.1461 -1.2192,1.5242 -2.2221,2.378 l 1.4854,-3.299 z" /><path
         inkscape:connector-curvature="0"
         id="path152"
         style="fill:#c99c5a;fill-opacity:1;fill-rule:evenodd;stroke:none"
         d="m 25.4991,37.9332 1.159,0.9919 -2.2376,1.4502 z" /><path
         inkscape:connector-curvature="0"
         id="path154"
         style="fill:#100811;fill-opacity:1;fill-rule:evenodd;stroke:none"
         d="m 40.3209,27.8807 c -0.6594,-2.1475 2.8508,0.3629 1.2401,0.3249 -3.3114,-0.0777 -0.6335,1.65 -1.2401,-0.3249" /><path
         inkscape:connector-curvature="0"
         id="path156"
         style="fill:#0c300e;fill-opacity:1;fill-rule:evenodd;stroke:none"
         d="m 97.4441,49.9609 -1.8307,1.2796 c 0.7569,-1.7714 -1.2441,-1.5358 1.8307,-1.2796" /></g></g></svg>